<svg width="596" height="220" viewBox="0 0 596 220" fill="none" xmlns="http://www.w3.org/2000/svg">
<path d="M0 8.00001C0 3.58173 3.58172 0 8 0H588C592.418 0 596 3.58172 596 8V212C596 216.418 592.418 220 588 220H8.00002C3.58174 220 0 216.418 0 212V8.00001Z" fill="#E8FAF3"/>
<g opacity="0.08">
<path d="M554 50.9C553.701 46.1 549.908 42.2 545.018 42H544.519C543.022 42 541.624 42.3 540.327 43C537.033 44.6 535.037 47.9 535.037 51.5C535.037 52.8 535.337 54.2 535.836 55.4L534.039 60.7C533.939 61.1 534.039 61.5 534.239 61.7C534.538 61.9 534.738 62 535.037 62C535.137 62 535.237 62 535.337 61.9L540.626 60.1C541.824 60.6 543.121 60.9 544.519 60.9C548.112 60.9 551.405 58.9 553.002 55.7C553.701 54.4 554 52.9 554 51.4V50.9Z" fill="#100A30"/>
</g>
</svg>
