<svg width="596" height="298" viewBox="0 0 596 298" fill="none" xmlns="http://www.w3.org/2000/svg">
<path d="M0 8C0 3.58172 3.58172 0 8 0H588C592.418 0 596 3.58172 596 8V290C596 294.418 592.418 298 588 298H8.00002C3.58174 298 0 294.418 0 290V8Z" fill="#E8E5FB"/>
<g clip-path="url(#clip0_15794:4)">
<g opacity="0.08">
<path d="M555.575 42.1888C555.275 41.9877 554.777 41.9877 554.477 42.1888C553.779 42.6916 552.98 43.0939 552.182 43.3956C550.186 41.5854 547.093 41.4849 544.998 43.3956C543.7 44.4012 543.002 45.9097 543.002 47.5187C540.108 47.3176 537.514 45.8091 535.817 43.3956C535.618 43.0939 535.318 42.9933 534.919 42.9933C534.52 42.9933 534.221 43.295 534.121 43.5967C534.021 43.6973 533.023 46.1108 533.123 49.0272C533.223 51.5413 534.221 54.7594 537.913 57.0723C536.416 57.7763 534.72 58.078 533.023 58.078C532.624 58.078 532.125 58.3797 532.025 58.7819C531.926 59.1842 532.125 59.687 532.524 59.8881C535.019 61.296 537.713 62 540.208 62C542.702 62 545.097 61.3966 547.293 60.0893C551.583 57.6757 553.978 53.0498 553.978 47.5187C553.978 47.3176 553.978 47.217 553.978 47.0159C554.976 45.9097 555.675 44.6024 555.974 43.1945C556.074 42.7922 555.874 42.3899 555.575 42.1888Z" fill="#100A30"/>
</g>
</g>
<defs>
<clipPath id="clip0_15794:4">
<rect width="24" height="24" fill="white" transform="translate(532 40)"/>
</clipPath>
</defs>
</svg>
