<svg width="395" height="250" viewBox="0 0 395 250" fill="none" xmlns="http://www.w3.org/2000/svg">
<mask id="mask0_1008:86" style="mask-type:alpha" maskUnits="userSpaceOnUse" x="0" y="0" width="395" height="250">
<path d="M1.29934 1.25H393.701V248.75H1.29934V1.25Z" fill="#F8F7F9" stroke="#B1A6F1" stroke-width="2"/>
</mask>
<g mask="url(#mask0_1008:86)">
<path d="M30.9666 739.604L227.049 642.391C233.269 639.159 282.887 614.777 431.599 543.098C580.311 471.419 573.069 368.229 550.858 325.593C538.365 300.353 511.768 246.994 505.335 235.477C498.902 223.961 510.308 212.773 516.815 208.618C583.849 169.153 651.312 113.214 631.925 69.8857C554.849 -102.367 509.426 -205.449 471.66 -260.126C433.896 -314.803 390.832 -297.077 378.63 -293.059C368.869 -289.847 294.37 -248.516 258.341 -228.252L244.269 -253.446C237.835 -264.963 225.031 -262.026 219.432 -259.118C5.40802 -149.488 -430.105 73.6505 -459.962 89.1601C-489.819 104.67 -487.997 122.297 -483.354 129.172C-425.675 233.868 -289.034 480.498 -203.909 629.444C-118.785 778.391 -11.8568 764.946 30.9666 739.604Z" fill="#DBDAE0"/>
<path d="M260.456 -365.911C391.572 -426.117 478.463 -339.924 503.238 -294.312C519.754 -340.454 620.5 -399.985 708.034 -373.866C894.661 -318.179 853.773 -144.581 836.856 -108.157C788.821 -4.73672 561.043 306.054 524.708 329.389C488.375 352.725 273.67 87.5461 224.124 -4.73669C174.576 -97.0196 83.7392 -284.766 260.456 -365.911Z" fill="#C3C1CB"/>
</g>
</svg>
